<svg width="1440" height="294" viewBox="0 0 1440 294" fill="none" xmlns="http://www.w3.org/2000/svg">
<rect width="1442" height="294" fill="#FFE6B8"/>
<line x1="1440" y1="215.5" y2="215.5" stroke="#AEB4D0" stroke-width="3"/>
<line x1="1440" y1="108.5" y2="108.5" stroke="#FFA69A" stroke-width="3"/>
<path d="M1440 56.5L0 56.5" stroke="#179561" stroke-width="3"/>
<path d="M1313.97 174.886C1313.13 176.648 1311.54 177.529 1309.22 177.529C1306.89 177.529 1305.27 176.648 1304.35 174.886C1304.35 159.523 1303.65 144.582 1302.24 130.064C1300.9 115.476 1299.53 102.826 1298.12 92.1136C1296.71 81.3309 1296 72.9092 1296 66.8483C1296 62.6198 1297.13 59.2723 1299.38 56.8056C1301.71 54.2685 1304.88 53 1308.9 53C1312.85 53 1315.98 54.2685 1318.31 56.8056C1320.7 59.2723 1321.9 62.6198 1321.9 66.8483C1321.9 73.473 1321.23 82.1766 1319.89 92.9593C1318.62 103.742 1317.32 116.287 1315.98 130.593C1314.64 144.899 1313.97 159.664 1313.97 174.886ZM1309.22 217.066C1305.55 217.066 1302.49 215.868 1300.02 213.471C1297.62 211.005 1296.42 207.904 1296.42 204.169C1296.42 200.504 1297.62 197.474 1300.02 195.077C1302.42 192.611 1305.48 191.378 1309.22 191.378C1312.81 191.378 1315.81 192.611 1318.2 195.077C1320.67 197.474 1321.9 200.504 1321.9 204.169C1321.9 207.833 1320.67 210.899 1318.2 213.366C1315.81 215.832 1312.81 217.066 1309.22 217.066Z" fill="#5E74E7"/>
<path d="M1237.23 197.404H1236.17C1233.35 203.042 1229.23 207.763 1223.8 211.569C1218.44 215.375 1211.96 217.278 1204.35 217.278C1195.96 217.278 1188.95 214.74 1183.31 209.666C1177.67 204.522 1174.86 197.404 1174.86 188.312C1174.86 183.309 1175.81 178.693 1177.71 174.464C1179.61 170.165 1182.18 166.571 1185.43 163.681C1188.67 160.721 1192.3 158.114 1196.32 155.859C1200.4 153.603 1204.77 151.842 1209.42 150.573C1214.07 149.234 1218.59 148.247 1222.95 147.613C1227.32 146.979 1231.59 146.626 1235.75 146.556V125.942C1235.75 116.146 1230.46 111.248 1219.89 111.248C1213.69 111.248 1208.54 112.199 1204.45 114.102C1200.44 116.005 1198.43 118.084 1198.43 120.339C1198.43 121.608 1198.96 123.44 1200.02 125.836C1201.14 128.232 1201.71 130.206 1201.71 131.756C1201.71 134.364 1200.65 136.654 1198.54 138.628C1196.42 140.601 1193.6 141.587 1190.08 141.587C1186.41 141.587 1183.45 140.495 1181.2 138.31C1179.01 136.055 1177.92 133.166 1177.92 129.642C1177.92 124.779 1180.35 120.304 1185.22 116.216C1190.15 112.129 1196.03 109.028 1202.87 106.914C1209.78 104.729 1216.54 103.637 1223.17 103.637C1234.72 103.637 1243.46 105.716 1249.38 109.874C1255.3 113.961 1258.26 120.762 1258.26 130.276V199.095C1258.26 203.324 1259.99 205.438 1263.44 205.438C1266.83 205.438 1269.57 202.83 1271.69 197.615C1272.6 195.148 1273.98 193.915 1275.81 193.915C1276.87 193.915 1277.71 194.303 1278.35 195.078C1279.05 195.853 1279.41 196.84 1279.41 198.038C1279.41 199.306 1278.95 200.927 1278.03 202.901C1277.19 204.804 1275.92 206.812 1274.23 208.926C1272.53 211.041 1270.1 212.873 1266.93 214.423C1263.83 215.903 1260.34 216.643 1256.47 216.643C1250.19 216.643 1245.4 214.846 1242.09 211.252C1238.85 207.658 1237.23 203.042 1237.23 197.404ZM1211.85 205.649C1218.34 205.649 1223.73 202.865 1228.03 197.298C1232.4 191.66 1234.97 185.071 1235.75 177.53V153.639C1230.95 153.709 1226.34 154.379 1221.9 155.647C1217.53 156.845 1213.44 158.642 1209.63 161.039C1205.9 163.435 1202.87 166.747 1200.54 170.976C1198.29 175.204 1197.16 180.032 1197.16 185.458C1197.16 191.871 1198.25 196.84 1200.44 200.364C1202.62 203.887 1206.43 205.649 1211.85 205.649Z" fill="#5E74E7"/>
<path d="M1133.42 215.163L1108.89 215.797C1107.48 214.951 1106.78 213.506 1106.78 211.463C1106.78 209.419 1107.48 208.045 1108.89 207.34H1120.63C1121.61 207.34 1122.11 206.847 1122.11 205.86V116.85C1122.11 115.863 1121.61 115.37 1120.63 115.37H1108.68C1107.27 114.383 1106.57 112.939 1106.57 111.036C1106.57 109.133 1107.27 107.688 1108.68 106.702C1110.16 106.772 1112.17 106.878 1114.71 107.019C1117.31 107.089 1119.53 107.16 1121.37 107.23C1123.27 107.301 1124.75 107.336 1125.81 107.336C1127.92 107.336 1130.42 107.054 1133.31 106.49C1136.2 105.926 1138.24 105.645 1139.44 105.645C1142.9 105.645 1144.62 107.583 1144.62 111.459V205.86C1144.62 206.847 1145.04 207.34 1145.89 207.34H1157.84C1159.32 208.186 1160.06 209.56 1160.06 211.463C1160.06 213.295 1159.32 214.74 1157.84 215.797L1133.42 215.163ZM1143.14 81.0136C1140.53 83.5507 1137.29 84.8192 1133.42 84.8192C1129.54 84.8192 1126.26 83.5507 1123.59 81.0136C1120.91 78.4765 1119.57 75.3403 1119.57 71.6052C1119.57 67.9405 1120.87 64.8748 1123.48 62.4082C1126.16 59.8711 1129.47 58.6025 1133.42 58.6025C1137.29 58.6025 1140.53 59.8359 1143.14 62.3025C1145.75 64.7691 1147.05 67.87 1147.05 71.6052C1147.05 75.3403 1145.75 78.4765 1143.14 81.0136Z" fill="#5E74E7"/>
<path d="M938.8 215.162L914.803 215.796C913.394 214.81 912.689 213.365 912.689 211.462C912.689 209.489 913.394 208.115 914.803 207.339H931.294C931.999 207.339 932.633 207.022 933.197 206.388C933.761 205.754 934.043 205.014 934.043 204.168V66.0019C934.043 65.0153 933.479 64.5219 932.351 64.5219H916.072C914.662 63.6058 913.958 62.161 913.958 60.1877C913.958 58.2144 914.662 56.7697 916.072 55.8535L939.011 56.6992L965.439 55.8535C966.919 55.8535 968.153 56.3468 969.139 57.3335C970.126 58.3201 970.796 59.5535 971.148 61.0334L1001.17 167.486C1001.38 168.12 1001.66 168.437 1002.02 168.437C1002.58 168.437 1002.97 168.12 1003.18 167.486L1032.99 61.4563C1033.69 57.9325 1035.6 56.0649 1038.7 55.8535L1057.94 56.6992L1088.28 55.8535C1089.69 56.8402 1090.39 58.2849 1090.39 60.1877C1090.39 62.0905 1089.69 63.5353 1088.28 64.5219H1072C1071.01 64.5219 1070.52 65.0153 1070.52 66.0019V205.859C1070.52 206.846 1071.01 207.339 1072 207.339H1088.28C1089.69 208.115 1090.39 209.489 1090.39 211.462C1090.39 213.365 1089.69 214.81 1088.28 215.796L1058.15 215.162L1027.6 215.796C1026.19 214.81 1025.48 213.365 1025.48 211.462C1025.48 209.489 1026.19 208.115 1027.6 207.339H1043.88C1044.86 207.339 1045.36 206.846 1045.36 205.859V66.6362C1045.36 65.9314 1045.15 65.3676 1044.72 64.9448C1044.3 64.4515 1043.81 64.2048 1043.24 64.2048C1042.19 64.2048 1041.45 64.7334 1041.02 65.7905L999.902 214.105C999.267 216.572 997.47 217.805 994.51 217.805C991.762 217.805 989.965 216.572 989.119 214.105L947.68 65.7905C947.468 64.7334 946.764 64.2048 945.566 64.2048C945.002 64.2048 944.508 64.4515 944.086 64.9448C943.733 65.3676 943.557 65.9314 943.557 66.6362V204.168C943.557 205.014 943.804 205.754 944.297 206.388C944.861 207.022 945.566 207.339 946.411 207.339H964.594C966.074 208.185 966.814 209.559 966.814 211.462C966.814 213.295 966.074 214.739 964.594 215.796L938.8 215.162Z" fill="#5E74E7"/>
<path d="M809.302 197.404H808.245C805.426 203.042 801.303 207.763 795.876 211.569C790.52 215.375 784.037 217.278 776.425 217.278C768.039 217.278 761.027 214.74 755.389 209.666C749.751 204.522 746.932 197.404 746.932 188.312C746.932 183.309 747.883 178.693 749.786 174.464C751.689 170.165 754.261 166.571 757.503 163.681C760.745 160.721 764.374 158.114 768.391 155.859C772.479 153.603 776.848 151.842 781.5 150.573C786.151 149.234 790.661 148.247 795.031 147.613C799.4 146.979 803.664 146.626 807.822 146.556V125.942C807.822 116.146 802.536 111.248 791.965 111.248C785.763 111.248 780.619 112.199 776.531 114.102C772.514 116.005 770.506 118.084 770.506 120.339C770.506 121.608 771.034 123.44 772.091 125.836C773.219 128.232 773.783 130.206 773.783 131.756C773.783 134.364 772.725 136.654 770.611 138.628C768.497 140.601 765.678 141.587 762.154 141.587C758.49 141.587 755.53 140.495 753.274 138.31C751.09 136.055 749.997 133.166 749.997 129.642C749.997 124.779 752.429 120.304 757.291 116.216C762.225 112.129 768.109 109.028 774.945 106.914C781.852 104.729 788.618 103.637 795.242 103.637C806.8 103.637 815.539 105.716 821.459 109.874C827.379 113.961 830.339 120.762 830.339 130.276V199.095C830.339 203.324 832.065 205.438 835.519 205.438C838.901 205.438 841.65 202.83 843.764 197.615C844.68 195.148 846.055 193.915 847.887 193.915C848.944 193.915 849.79 194.303 850.424 195.078C851.129 195.853 851.481 196.84 851.481 198.038C851.481 199.306 851.023 200.927 850.107 202.901C849.261 204.804 847.993 206.812 846.301 208.926C844.61 211.041 842.179 212.873 839.007 214.423C835.906 215.903 832.418 216.643 828.542 216.643C822.269 216.643 817.477 214.846 814.165 211.252C810.923 207.658 809.302 203.042 809.302 197.404ZM783.931 205.649C790.415 205.649 795.806 202.865 800.105 197.298C804.474 191.66 807.047 185.071 807.822 177.53V153.639C803.03 153.709 798.414 154.379 793.974 155.647C789.604 156.845 785.517 158.642 781.711 161.039C777.976 163.435 774.945 166.747 772.62 170.976C770.365 175.204 769.237 180.032 769.237 185.458C769.237 191.871 770.329 196.84 772.514 200.364C774.699 203.887 778.504 205.649 783.931 205.649Z" fill="#5E74E7"/>
<path d="M650.311 217.277C647.633 217.277 645.906 215.938 645.131 213.26L611.831 119.07C611.55 117.872 611.091 117.273 610.457 117.273C609.893 117.273 609.611 118.013 609.611 119.493V205.437C609.611 206.706 610.21 207.34 611.409 207.34H622.403C623.812 208.045 624.517 209.419 624.517 211.463C624.517 213.648 623.812 215.092 622.403 215.797L604.432 215.163L586.883 215.797C585.333 214.811 584.558 213.366 584.558 211.463C584.558 209.49 585.333 208.115 586.883 207.34H599.04C600.168 207.34 600.732 206.706 600.732 205.437V117.062C600.732 116.075 600.309 115.582 599.463 115.582H587.095C585.685 114.736 584.98 113.291 584.98 111.248C584.98 109.204 585.685 107.83 587.095 107.125L605.489 107.548L626.314 107.125C627.935 107.125 629.133 107.442 629.908 108.076C630.683 108.64 631.423 109.979 632.128 112.093L656.442 180.701C657.006 181.758 657.358 182.286 657.499 182.286C658.063 182.286 658.486 181.758 658.768 180.701L683.187 110.825C683.751 109.486 684.562 108.534 685.619 107.97C686.676 107.407 688.332 107.125 690.587 107.125C692.067 106.913 694.534 106.984 697.987 107.336L727.164 107.125C728.785 107.97 729.595 109.345 729.595 111.248C729.595 113.15 728.785 114.595 727.164 115.582H715.535C714.619 115.582 714.161 116.075 714.161 117.062V205.86C714.161 206.847 714.619 207.34 715.535 207.34H727.164C728.785 208.186 729.595 209.56 729.595 211.463C729.595 213.366 728.785 214.811 727.164 215.797L702.744 215.163L680.439 215.797C678.959 214.881 678.219 213.436 678.219 211.463C678.219 209.419 678.959 208.045 680.439 207.34H690.164C691.01 207.34 691.433 206.847 691.433 205.86V117.907C691.433 116.498 691.081 115.793 690.376 115.793C689.953 115.793 689.319 116.815 688.473 118.859L655.702 213.26C654.927 215.938 653.13 217.277 650.311 217.277Z" fill="#5E74E7"/>
<path d="M490.473 217.277C487.795 217.277 486.069 215.938 485.293 213.26L451.994 119.07C451.712 117.872 451.254 117.273 450.62 117.273C450.056 117.273 449.774 118.013 449.774 119.493V205.437C449.774 206.706 450.373 207.34 451.571 207.34H462.565C463.975 208.045 464.68 209.419 464.68 211.463C464.68 213.648 463.975 215.092 462.565 215.797L444.594 215.163L427.046 215.797C425.495 214.811 424.72 213.366 424.72 211.463C424.72 209.49 425.495 208.115 427.046 207.34H439.203C440.33 207.34 440.894 206.706 440.894 205.437V117.062C440.894 116.075 440.471 115.582 439.626 115.582H427.257C425.848 114.736 425.143 113.291 425.143 111.248C425.143 109.204 425.848 107.83 427.257 107.125L445.651 107.548L466.477 107.125C468.098 107.125 469.296 107.442 470.071 108.076C470.846 108.64 471.586 109.979 472.291 112.093L496.605 180.701C497.168 181.758 497.521 182.286 497.662 182.286C498.226 182.286 498.648 181.758 498.93 180.701L523.35 110.825C523.914 109.486 524.724 108.534 525.781 107.97C526.838 107.407 528.495 107.125 530.75 107.125C532.23 106.913 534.696 106.984 538.15 107.336L567.326 107.125C568.947 107.97 569.758 109.345 569.758 111.248C569.758 113.15 568.947 114.595 567.326 115.582H555.698C554.782 115.582 554.324 116.075 554.324 117.062V205.86C554.324 206.847 554.782 207.34 555.698 207.34H567.326C568.947 208.186 569.758 209.56 569.758 211.463C569.758 213.366 568.947 214.811 567.326 215.797L542.907 215.163L520.601 215.797C519.121 214.881 518.381 213.436 518.381 211.463C518.381 209.419 519.121 208.045 520.601 207.34H530.327C531.173 207.34 531.595 206.847 531.595 205.86V117.907C531.595 116.498 531.243 115.793 530.538 115.793C530.115 115.793 529.481 116.815 528.636 118.859L495.865 213.26C495.089 215.938 493.292 217.277 490.473 217.277Z" fill="#5E74E7"/>
<path d="M375.458 197.404H374.401C371.582 203.042 367.459 207.763 362.033 211.569C356.677 215.375 350.193 217.278 342.582 217.278C334.195 217.278 327.183 214.74 321.545 209.666C315.907 204.522 313.088 197.404 313.088 188.312C313.088 183.309 314.039 178.693 315.942 174.464C317.845 170.165 320.417 166.571 323.659 163.681C326.901 160.721 330.53 158.114 334.548 155.859C338.635 153.603 343.005 151.842 347.656 150.573C352.307 149.234 356.818 148.247 361.187 147.613C365.556 146.979 369.82 146.626 373.978 146.556V125.942C373.978 116.146 368.693 111.248 358.121 111.248C351.92 111.248 346.775 112.199 342.687 114.102C338.67 116.005 336.662 118.084 336.662 120.339C336.662 121.608 337.19 123.44 338.247 125.836C339.375 128.232 339.939 130.206 339.939 131.756C339.939 134.364 338.882 136.654 336.767 138.628C334.653 140.601 331.834 141.587 328.31 141.587C324.646 141.587 321.686 140.495 319.431 138.31C317.246 136.055 316.154 133.166 316.154 129.642C316.154 124.779 318.585 120.304 323.448 116.216C328.381 112.129 334.266 109.028 341.102 106.914C348.008 104.729 354.774 103.637 361.398 103.637C372.956 103.637 381.695 105.716 387.615 109.874C393.535 113.961 396.495 120.762 396.495 130.276V199.095C396.495 203.324 398.222 205.438 401.675 205.438C405.058 205.438 407.806 202.83 409.92 197.615C410.837 195.148 412.211 193.915 414.043 193.915C415.1 193.915 415.946 194.303 416.58 195.078C417.285 195.853 417.637 196.84 417.637 198.038C417.637 199.306 417.179 200.927 416.263 202.901C415.418 204.804 414.149 206.812 412.458 208.926C410.766 211.041 408.335 212.873 405.163 214.423C402.063 215.903 398.574 216.643 394.698 216.643C388.426 216.643 383.633 214.846 380.321 211.252C377.079 207.658 375.458 203.042 375.458 197.404ZM350.087 205.649C356.571 205.649 361.962 202.865 366.261 197.298C370.631 191.66 373.203 185.071 373.978 177.53V153.639C369.186 153.709 364.57 154.379 360.13 155.647C355.76 156.845 351.673 158.642 347.867 161.039C344.132 163.435 341.102 166.747 338.776 170.976C336.521 175.204 335.393 180.032 335.393 185.458C335.393 191.871 336.486 196.84 338.67 200.364C340.855 203.887 344.661 205.649 350.087 205.649Z" fill="#5E74E7"/>
<path d="M145.111 215.162L121.114 215.796C119.705 214.81 119 213.365 119 211.462C119 209.489 119.705 208.115 121.114 207.339H137.605C138.31 207.339 138.944 207.022 139.508 206.388C140.072 205.754 140.354 205.014 140.354 204.168V66.0019C140.354 65.0153 139.79 64.5219 138.663 64.5219H122.383C120.973 63.6058 120.269 62.161 120.269 60.1877C120.269 58.2144 120.973 56.7697 122.383 55.8535L145.322 56.6992L171.75 55.8535C174.71 55.8535 176.578 57.5802 177.353 61.0334L207.481 167.486C207.693 168.12 207.975 168.437 208.327 168.437C208.891 168.437 209.278 168.12 209.49 167.486L239.301 61.4563C240.005 57.9325 241.873 56.0649 244.903 55.8535L264.249 56.6992L294.483 55.8535C295.963 56.9106 296.703 58.3554 296.703 60.1877C296.703 62.0201 295.963 63.4648 294.483 64.5219H278.309C277.322 64.5219 276.829 65.0153 276.829 66.0019V205.859C276.829 206.846 277.322 207.339 278.309 207.339H294.483C295.963 208.185 296.703 209.559 296.703 211.462C296.703 213.295 295.963 214.739 294.483 215.796L264.46 215.162L233.909 215.796C232.5 214.81 231.795 213.365 231.795 211.462C231.795 209.489 232.5 208.115 233.909 207.339H250.189C251.176 207.339 251.669 206.846 251.669 205.859V66.6362C251.669 65.9314 251.422 65.3676 250.929 64.9448C250.506 64.4515 250.013 64.2048 249.449 64.2048C248.462 64.2048 247.758 64.7334 247.335 65.7905L206.213 214.105C205.578 216.572 203.781 217.805 200.821 217.805C198.002 217.805 196.17 216.572 195.324 214.105L153.991 65.7905C153.779 64.7334 153.075 64.2048 151.877 64.2048C151.313 64.2048 150.819 64.4515 150.397 64.9448C150.044 65.3676 149.868 65.9314 149.868 66.6362V204.168C149.868 205.014 150.115 205.754 150.608 206.388C151.172 207.022 151.877 207.339 152.722 207.339H170.905C172.385 208.185 173.125 209.559 173.125 211.462C173.125 213.295 172.385 214.739 170.905 215.796L145.111 215.162Z" fill="#5E74E7"/>
<path d="M338.236 48.2637C337.54 48.2637 337.003 48.0391 336.625 47.5898C336.247 47.1341 336.059 46.571 336.059 45.9004C336.059 45.4056 336.179 45.0215 336.42 44.748C336.661 44.4746 336.98 44.3379 337.377 44.3379C337.715 44.3379 337.966 44.4421 338.129 44.6504C338.298 44.8522 338.383 45.1029 338.383 45.4023C338.383 45.6497 338.337 45.8646 338.246 46.0469C338.155 46.2292 338.054 46.3626 337.943 46.4473C337.833 46.5254 337.732 46.6165 337.641 46.7207C337.549 46.8184 337.504 46.9193 337.504 47.0234C337.504 47.1667 337.566 47.2871 337.689 47.3848C337.813 47.4759 337.989 47.5215 338.217 47.5215C338.445 47.5215 338.65 47.4694 338.832 47.3652C339.014 47.2611 339.171 47.1048 339.301 46.8965C339.431 46.6816 339.542 46.4668 339.633 46.252C339.73 46.0371 339.815 45.7604 339.887 45.4219C339.965 45.0833 340.023 44.7936 340.062 44.5527C340.102 44.3118 340.147 44.0091 340.199 43.6445C340.486 41.4635 340.665 38.5957 340.736 35.041C340.743 34.6439 340.678 34.377 340.541 34.2402C340.404 34.1035 340.15 34.0352 339.779 34.0352H338.783C338.646 33.9701 338.578 33.8464 338.578 33.6641C338.578 33.4688 338.646 33.3353 338.783 33.2637L341.498 33.3223H346.684L349.418 33.2637C349.568 33.3353 349.643 33.4688 349.643 33.6641C349.643 33.8333 349.568 33.957 349.418 34.0352H347.943C347.904 34.0352 347.868 34.0514 347.836 34.084C347.81 34.11 347.797 34.1426 347.797 34.1816V47.1016C347.797 47.1927 347.846 47.2383 347.943 47.2383H349.418C349.568 47.3294 349.643 47.4629 349.643 47.6387C349.643 47.8145 349.568 47.9414 349.418 48.0195L346.645 47.9609L343.842 48.0195C343.705 47.9544 343.637 47.8275 343.637 47.6387C343.637 47.4564 343.705 47.3229 343.842 47.2383H345.316C345.414 47.2383 345.463 47.1927 345.463 47.1016V34.3184C345.463 34.2272 345.414 34.1816 345.316 34.1816H342.484C342.139 34.1816 341.908 34.2435 341.791 34.3672C341.674 34.4909 341.609 34.7155 341.596 35.041C341.498 38.7194 341.306 41.5775 341.02 43.6152C340.98 43.9342 340.945 44.2044 340.912 44.4258C340.88 44.6406 340.834 44.8945 340.775 45.1875C340.723 45.474 340.668 45.7148 340.609 45.9102C340.557 46.1055 340.489 46.3203 340.404 46.5547C340.326 46.7891 340.238 46.9844 340.141 47.1406C340.049 47.2904 339.939 47.4434 339.809 47.5996C339.678 47.7493 339.538 47.8698 339.389 47.9609C339.239 48.0521 339.066 48.1237 338.871 48.1758C338.676 48.2344 338.464 48.2637 338.236 48.2637ZM351.332 48.0391C351.202 47.9479 351.137 47.8145 351.137 47.6387C351.137 47.4564 351.202 47.3294 351.332 47.2578H352.416C352.507 47.2578 352.553 47.2122 352.553 47.1211V38.918C352.553 38.8268 352.507 38.7812 352.416 38.7812H351.332C351.202 38.6901 351.137 38.5566 351.137 38.3809C351.137 38.1986 351.202 38.0716 351.332 38L353.598 38.0391L355.854 38C355.99 38.0781 356.059 38.2051 356.059 38.3809C356.059 38.5501 355.99 38.6836 355.854 38.7812H354.75C354.672 38.7812 354.633 38.8268 354.633 38.918V45.7246L358.676 39.0156V38.8984C358.676 38.8203 358.637 38.7812 358.559 38.7812H357.475C357.325 38.6901 357.25 38.5566 357.25 38.3809C357.25 38.2051 357.325 38.0781 357.475 38L359.711 38.0391L361.977 38C362.12 38.0716 362.191 38.1986 362.191 38.3809C362.191 38.5566 362.12 38.6901 361.977 38.7812H360.893C360.814 38.7812 360.775 38.8268 360.775 38.918V47.1211C360.775 47.2122 360.814 47.2578 360.893 47.2578H361.977C362.12 47.3294 362.191 47.4564 362.191 47.6387C362.191 47.8145 362.12 47.9479 361.977 48.0391L359.711 47.9805L357.475 48.0391C357.325 47.9479 357.25 47.8145 357.25 47.6387C357.25 47.4629 357.325 47.3359 357.475 47.2578H358.559C358.637 47.2578 358.676 47.2122 358.676 47.1211V40.3242L354.633 47.0234V47.1211C354.633 47.2122 354.672 47.2578 354.75 47.2578H355.854C355.99 47.3359 356.059 47.4629 356.059 47.6387C356.059 47.8079 355.99 47.9414 355.854 48.0391L353.598 47.9805L351.332 48.0391ZM363.812 48.0391C363.682 47.9479 363.617 47.8145 363.617 47.6387C363.617 47.4564 363.682 47.3294 363.812 47.2578H364.896C364.988 47.2578 365.033 47.2122 365.033 47.1211V38.918C365.033 38.8268 364.988 38.7812 364.896 38.7812H363.812C363.682 38.6901 363.617 38.5566 363.617 38.3809C363.617 38.1986 363.682 38.0716 363.812 38L366.078 38.0391L368.334 38C368.471 38.0781 368.539 38.2051 368.539 38.3809C368.539 38.5501 368.471 38.6836 368.334 38.7812H367.23C367.152 38.7812 367.113 38.8268 367.113 38.918V42.5996H370.99V38.918C370.99 38.8268 370.945 38.7812 370.854 38.7812H369.779C369.643 38.6836 369.574 38.5501 369.574 38.3809C369.574 38.2051 369.643 38.0781 369.779 38L372.035 38.0391L374.291 38C374.428 38.0781 374.496 38.2051 374.496 38.3809C374.496 38.5501 374.428 38.6836 374.291 38.7812H373.197C373.165 38.7812 373.135 38.7943 373.109 38.8203C373.083 38.8464 373.07 38.8789 373.07 38.918V47.1211C373.07 47.1602 373.083 47.1927 373.109 47.2188C373.135 47.2448 373.165 47.2578 373.197 47.2578H374.291C374.428 47.3359 374.496 47.4629 374.496 47.6387C374.496 47.8079 374.428 47.9414 374.291 48.0391L372.035 47.9805L369.779 48.0391C369.643 47.9414 369.574 47.8079 369.574 47.6387C369.574 47.4629 369.643 47.3359 369.779 47.2578H370.854C370.945 47.2578 370.99 47.2122 370.99 47.1211V43.3027H367.113V47.1211C367.113 47.2122 367.152 47.2578 367.23 47.2578H368.334C368.471 47.3359 368.539 47.4629 368.539 47.6387C368.539 47.8079 368.471 47.9414 368.334 48.0391L366.078 47.9805L363.812 48.0391ZM376.137 48.0391C376.007 47.9479 375.941 47.8145 375.941 47.6387C375.941 47.4564 376.007 47.3294 376.137 47.2578H377.221C377.312 47.2578 377.357 47.2122 377.357 47.1211V38.918C377.357 38.8268 377.312 38.7812 377.221 38.7812H376.137C376.007 38.6901 375.941 38.5566 375.941 38.3809C375.941 38.1986 376.007 38.0716 376.137 38L378.402 38.0391L380.658 38C380.795 38.0781 380.863 38.2051 380.863 38.3809C380.863 38.5501 380.795 38.6836 380.658 38.7812H379.555C379.477 38.7812 379.438 38.8268 379.438 38.918V45.7246L383.48 39.0156V38.8984C383.48 38.8203 383.441 38.7812 383.363 38.7812H382.279C382.13 38.6901 382.055 38.5566 382.055 38.3809C382.055 38.2051 382.13 38.0781 382.279 38L384.516 38.0391L386.781 38C386.924 38.0716 386.996 38.1986 386.996 38.3809C386.996 38.5566 386.924 38.6901 386.781 38.7812H385.697C385.619 38.7812 385.58 38.8268 385.58 38.918V47.1211C385.58 47.2122 385.619 47.2578 385.697 47.2578H386.781C386.924 47.3294 386.996 47.4564 386.996 47.6387C386.996 47.8145 386.924 47.9479 386.781 48.0391L384.516 47.9805L382.279 48.0391C382.13 47.9479 382.055 47.8145 382.055 47.6387C382.055 47.4629 382.13 47.3359 382.279 47.2578H383.363C383.441 47.2578 383.48 47.2122 383.48 47.1211V40.3242L379.438 47.0234V47.1211C379.438 47.2122 379.477 47.2578 379.555 47.2578H380.658C380.795 47.3359 380.863 47.4629 380.863 47.6387C380.863 47.8079 380.795 47.9414 380.658 48.0391L378.402 47.9805L376.137 48.0391ZM389.857 48.2246C389.519 48.2246 389.229 48.1497 388.988 48C388.754 47.8568 388.575 47.6582 388.451 47.4043C388.327 47.1504 388.236 46.8965 388.178 46.6426C388.126 46.3822 388.093 46.1022 388.08 45.8027C388.08 45.64 388.116 45.5033 388.188 45.3926C388.259 45.2754 388.35 45.2168 388.461 45.2168C388.604 45.2168 388.676 45.3438 388.676 45.5977C388.695 46.0859 388.764 46.5059 388.881 46.8574C388.998 47.209 389.158 47.3848 389.359 47.3848C389.522 47.3848 389.643 47.3197 389.721 47.1895C389.799 47.0527 389.857 46.8216 389.896 46.4961C389.994 45.6693 390.069 45.1322 390.121 44.8848C390.251 44.3184 390.479 43.8919 390.805 43.6055C391.137 43.319 391.583 43.1628 392.143 43.1367C392.221 43.1237 392.26 43.0846 392.26 43.0195C392.26 42.9544 392.214 42.9219 392.123 42.9219C390.411 42.8568 389.555 42.1016 389.555 40.6562C389.555 39.8555 389.883 39.2109 390.541 38.7227C391.205 38.2344 392.139 37.9935 393.344 38L395.736 38.0391L398.021 38C398.152 38.0716 398.217 38.1986 398.217 38.3809C398.217 38.5566 398.152 38.6901 398.021 38.7812H396.898C396.82 38.7812 396.781 38.8268 396.781 38.918V47.1211C396.781 47.1992 396.82 47.2383 396.898 47.2383H398.021C398.152 47.3294 398.217 47.4629 398.217 47.6387C398.217 47.8145 398.152 47.9479 398.021 48.0391C397.995 48.0326 397.628 48.0195 396.918 48C396.215 47.987 395.821 47.9805 395.736 47.9805C395.639 47.9805 395.225 47.987 394.496 48C393.767 48.0195 393.389 48.0326 393.363 48.0391C393.227 47.9414 393.158 47.8079 393.158 47.6387C393.158 47.4694 393.227 47.3359 393.363 47.2383H394.555C394.639 47.2383 394.682 47.1927 394.682 47.1016V43.3418H393.881C393.308 43.3418 392.904 43.459 392.67 43.6934C392.436 43.9277 392.273 44.3639 392.182 45.002L392.035 45.9395C391.905 46.7402 391.68 47.3229 391.361 47.6875C391.042 48.0456 390.541 48.2246 389.857 48.2246ZM393.617 42.6387H394.682V38.8984C394.682 38.8203 394.639 38.7812 394.555 38.7812H393.539C392.934 38.7812 392.478 38.9375 392.172 39.25C391.872 39.556 391.723 40.0671 391.723 40.7832C391.723 41.4408 391.869 41.916 392.162 42.209C392.455 42.4954 392.94 42.6387 393.617 42.6387ZM404.828 48.0391C404.698 47.9479 404.633 47.8145 404.633 47.6387C404.633 47.4564 404.698 47.3294 404.828 47.2578H405.912C406.003 47.2578 406.049 47.2122 406.049 47.1211V38.918C406.049 38.8268 406.003 38.7812 405.912 38.7812H404.828C404.698 38.6901 404.633 38.5566 404.633 38.3809C404.633 38.1986 404.698 38.0716 404.828 38L407.094 38.0391H412.895L415.15 38C415.281 38.0651 415.346 38.1921 415.346 38.3809C415.346 38.5697 415.281 38.7031 415.15 38.7812H414.066C413.988 38.7812 413.949 38.8268 413.949 38.918V47.1211C413.949 47.2122 413.988 47.2578 414.066 47.2578H415.15C415.281 47.3229 415.346 47.4499 415.346 47.6387C415.346 47.8275 415.281 47.9609 415.15 48.0391L412.895 47.9805L410.668 48.0391C410.538 47.9544 410.473 47.821 410.473 47.6387C410.473 47.4499 410.538 47.3229 410.668 47.2578H411.713C411.804 47.2578 411.85 47.2122 411.85 47.1211V38.8984C411.85 38.8073 411.804 38.7617 411.713 38.7617H408.246C408.168 38.7617 408.129 38.8073 408.129 38.8984V47.1211C408.129 47.2122 408.168 47.2578 408.246 47.2578H409.311C409.454 47.3294 409.525 47.4564 409.525 47.6387C409.525 47.8145 409.454 47.9479 409.311 48.0391L407.094 47.9805L404.828 48.0391ZM419.018 52.4824L416.742 52.541C416.605 52.4694 416.537 52.3424 416.537 52.1602C416.537 51.9648 416.605 51.8314 416.742 51.7598H417.836C417.921 51.7598 417.963 51.7142 417.963 51.623V38.8984C417.963 38.7943 417.914 38.7422 417.816 38.7422H416.742C416.605 38.6771 416.537 38.5501 416.537 38.3613C416.537 38.179 416.605 38.0456 416.742 37.9609C416.872 37.9674 417.045 37.9772 417.26 37.9902C417.481 37.9967 417.673 38.0033 417.836 38.0098C418.005 38.0163 418.139 38.0195 418.236 38.0195C418.419 38.0195 418.624 37.9935 418.852 37.9414C419.086 37.8893 419.262 37.8633 419.379 37.8633C419.548 37.8633 419.665 37.9056 419.73 37.9902C419.802 38.0749 419.838 38.2116 419.838 38.4004V39.9238C420.196 39.2728 420.661 38.7357 421.234 38.3125C421.807 37.8893 422.429 37.6777 423.1 37.6777C424.258 37.6777 425.199 38.1628 425.922 39.1328C426.651 40.1029 427.016 41.3789 427.016 42.9609C427.016 44.0026 426.814 44.9368 426.41 45.7637C426.013 46.584 425.482 47.2155 424.818 47.6582C424.154 48.1009 423.428 48.3223 422.641 48.3223C421.573 48.3223 420.714 47.9414 420.062 47.1797V51.623C420.062 51.7142 420.102 51.7598 420.18 51.7598H421.654C421.791 51.8379 421.859 51.9714 421.859 52.1602C421.859 52.3359 421.791 52.4629 421.654 52.541L419.018 52.4824ZM422.777 38.5566C421.794 38.5566 420.889 39.2793 420.062 40.7246V45.9785C420.557 46.9811 421.296 47.4824 422.279 47.4824C423.061 47.4824 423.66 47.1341 424.076 46.4375C424.493 45.7409 424.701 44.582 424.701 42.9609C424.701 41.3594 424.538 40.2266 424.213 39.5625C423.887 38.8919 423.409 38.5566 422.777 38.5566ZM429.379 45.7832C428.949 44.9629 428.734 44.0352 428.734 43C428.734 41.9648 428.949 41.0404 429.379 40.2266C429.809 39.4062 430.385 38.778 431.107 38.3418C431.83 37.8991 432.631 37.6777 433.51 37.6777C434.851 37.6777 435.98 38.1758 436.898 39.1719C437.816 40.1615 438.275 41.4375 438.275 43C438.275 44.5625 437.816 45.8418 436.898 46.8379C435.98 47.8275 434.851 48.3223 433.51 48.3223C432.631 48.3223 431.83 48.1042 431.107 47.668C430.385 47.2253 429.809 46.597 429.379 45.7832ZM431.078 43C431.078 44.6471 431.286 45.8288 431.703 46.5449C432.126 47.2611 432.729 47.6191 433.51 47.6191C434.291 47.6191 434.893 47.2611 435.316 46.5449C435.74 45.8288 435.951 44.6471 435.951 43C435.951 41.3594 435.74 40.181 435.316 39.4648C434.893 38.7422 434.291 38.3809 433.51 38.3809C432.729 38.3809 432.126 38.7422 431.703 39.4648C431.286 40.181 431.078 41.3594 431.078 43ZM440.043 48.0391C439.913 47.9479 439.848 47.8145 439.848 47.6387C439.848 47.4564 439.913 47.3294 440.043 47.2578H441.127C441.218 47.2578 441.264 47.2122 441.264 47.1211V38.918C441.264 38.8268 441.218 38.7812 441.127 38.7812H440.043C439.913 38.6901 439.848 38.5566 439.848 38.3809C439.848 38.1986 439.913 38.0716 440.043 38L442.309 38.0391H448.109L450.365 38C450.495 38.0651 450.561 38.1921 450.561 38.3809C450.561 38.5697 450.495 38.7031 450.365 38.7812H449.281C449.203 38.7812 449.164 38.8268 449.164 38.918V47.1211C449.164 47.2122 449.203 47.2578 449.281 47.2578H450.365C450.495 47.3229 450.561 47.4499 450.561 47.6387C450.561 47.8275 450.495 47.9609 450.365 48.0391L448.109 47.9805L445.883 48.0391C445.753 47.9544 445.688 47.821 445.688 47.6387C445.688 47.4499 445.753 47.3229 445.883 47.2578H446.928C447.019 47.2578 447.064 47.2122 447.064 47.1211V38.8984C447.064 38.8073 447.019 38.7617 446.928 38.7617H443.461C443.383 38.7617 443.344 38.8073 443.344 38.8984V47.1211C443.344 47.2122 443.383 47.2578 443.461 47.2578H444.525C444.669 47.3294 444.74 47.4564 444.74 47.6387C444.74 47.8145 444.669 47.9479 444.525 48.0391L442.309 47.9805L440.043 48.0391ZM452.211 48.0391C452.081 47.9479 452.016 47.8145 452.016 47.6387C452.016 47.4564 452.081 47.3294 452.211 47.2578H453.295C453.386 47.2578 453.432 47.2122 453.432 47.1211V38.918C453.432 38.8268 453.386 38.7812 453.295 38.7812H452.211C452.081 38.6901 452.016 38.5566 452.016 38.3809C452.016 38.1986 452.081 38.0716 452.211 38L454.477 38.0391L456.732 38C456.869 38.0781 456.938 38.2051 456.938 38.3809C456.938 38.5501 456.869 38.6836 456.732 38.7812H455.629C455.551 38.7812 455.512 38.8268 455.512 38.918V45.7246L459.555 39.0156V38.8984C459.555 38.8203 459.516 38.7812 459.438 38.7812H458.354C458.204 38.6901 458.129 38.5566 458.129 38.3809C458.129 38.2051 458.204 38.0781 458.354 38L460.59 38.0391L462.855 38C462.999 38.0716 463.07 38.1986 463.07 38.3809C463.07 38.5566 462.999 38.6901 462.855 38.7812H461.771C461.693 38.7812 461.654 38.8268 461.654 38.918V47.1211C461.654 47.2122 461.693 47.2578 461.771 47.2578H462.855C462.999 47.3294 463.07 47.4564 463.07 47.6387C463.07 47.8145 462.999 47.9479 462.855 48.0391L460.59 47.9805L458.354 48.0391C458.204 47.9479 458.129 47.8145 458.129 47.6387C458.129 47.4629 458.204 47.3359 458.354 47.2578H459.438C459.516 47.2578 459.555 47.2122 459.555 47.1211V40.3242L455.512 47.0234V47.1211C455.512 47.2122 455.551 47.2578 455.629 47.2578H456.732C456.869 47.3359 456.938 47.4629 456.938 47.6387C456.938 47.8079 456.869 47.9414 456.732 48.0391L454.477 47.9805L452.211 48.0391ZM464.633 43.0391C464.633 42.0625 464.831 41.1673 465.229 40.3535C465.626 39.5332 466.179 38.8822 466.889 38.4004C467.605 37.9186 468.399 37.6777 469.271 37.6777C470.014 37.6777 470.665 37.8307 471.225 38.1367C471.785 38.4427 472.234 38.8626 472.572 39.3965C472.865 39.8001 473.012 40.2428 473.012 40.7246C473.012 41.0632 472.904 41.3594 472.689 41.6133C472.475 41.8607 472.175 41.9844 471.791 41.9844C471.472 41.9844 471.212 41.89 471.01 41.7012C470.814 41.5124 470.717 41.2715 470.717 40.9785C470.717 40.8027 470.801 40.5553 470.971 40.2363C471.146 39.9108 471.234 39.6862 471.234 39.5625C471.234 39.2044 471.065 38.9245 470.727 38.7227C470.388 38.5208 469.997 38.4199 469.555 38.4199C468.76 38.4199 468.139 38.8008 467.689 39.5625C467.24 40.3177 467.016 41.4505 467.016 42.9609C467.016 44.5104 467.224 45.6465 467.641 46.3691C468.064 47.0853 468.702 47.4434 469.555 47.4434C470.245 47.4434 470.85 47.196 471.371 46.7012C471.898 46.1999 472.24 45.5716 472.396 44.8164C472.475 44.4844 472.615 44.3184 472.816 44.3184C473.025 44.3184 473.129 44.4453 473.129 44.6992C473.129 44.8424 473.093 45.0378 473.021 45.2852C472.956 45.526 472.882 45.7376 472.797 45.9199C472.504 46.6361 472.032 47.2155 471.381 47.6582C470.73 48.1009 469.988 48.3223 469.154 48.3223C467.859 48.3223 466.781 47.8405 465.922 46.877C465.062 45.9069 464.633 44.6276 464.633 43.0391ZM474.789 48.0391C474.659 47.9479 474.594 47.8145 474.594 47.6387C474.594 47.4564 474.659 47.3294 474.789 47.2578H475.873C475.964 47.2578 476.01 47.2122 476.01 47.1211V38.918C476.01 38.8268 475.964 38.7812 475.873 38.7812H474.789C474.659 38.6901 474.594 38.5566 474.594 38.3809C474.594 38.1986 474.659 38.0716 474.789 38L477.055 38.0391L479.311 38C479.447 38.0781 479.516 38.2051 479.516 38.3809C479.516 38.5501 479.447 38.6836 479.311 38.7812H478.207C478.129 38.7812 478.09 38.8268 478.09 38.918V42.5996H481.967V38.918C481.967 38.8268 481.921 38.7812 481.83 38.7812H480.756C480.619 38.6836 480.551 38.5501 480.551 38.3809C480.551 38.2051 480.619 38.0781 480.756 38L483.012 38.0391L485.268 38C485.404 38.0781 485.473 38.2051 485.473 38.3809C485.473 38.5501 485.404 38.6836 485.268 38.7812H484.174C484.141 38.7812 484.112 38.7943 484.086 38.8203C484.06 38.8464 484.047 38.8789 484.047 38.918V47.1211C484.047 47.1602 484.06 47.1927 484.086 47.2188C484.112 47.2448 484.141 47.2578 484.174 47.2578H485.268C485.404 47.3359 485.473 47.4629 485.473 47.6387C485.473 47.8079 485.404 47.9414 485.268 48.0391L483.012 47.9805L480.756 48.0391C480.619 47.9414 480.551 47.8079 480.551 47.6387C480.551 47.4629 480.619 47.3359 480.756 47.2578H481.83C481.921 47.2578 481.967 47.2122 481.967 47.1211V43.3027H478.09V47.1211C478.09 47.2122 478.129 47.2578 478.207 47.2578H479.311C479.447 47.3359 479.516 47.4629 479.516 47.6387C479.516 47.8079 479.447 47.9414 479.311 48.0391L477.055 47.9805L474.789 48.0391ZM496 48.0391C495.863 47.9414 495.795 47.8079 495.795 47.6387C495.795 47.4629 495.863 47.3359 496 47.2578H496.996C497.074 47.2578 497.113 47.2122 497.113 47.1211V38.918C497.113 38.8268 497.074 38.7812 496.996 38.7812H495.912C495.769 38.6901 495.697 38.5566 495.697 38.3809C495.697 38.1986 495.769 38.0716 495.912 38L498.158 38.0391L500.414 38C500.564 38.0781 500.639 38.2051 500.639 38.3809C500.639 38.5566 500.564 38.6901 500.414 38.7812H499.34C499.255 38.7812 499.213 38.8268 499.213 38.918V47.1211C499.213 47.2122 499.255 47.2578 499.34 47.2578H500.414C500.564 47.3359 500.639 47.4629 500.639 47.6387C500.639 47.8145 500.564 47.9479 500.414 48.0391L498.158 47.9805L496 48.0391ZM487.113 48.0195C486.983 47.9479 486.918 47.821 486.918 47.6387C486.918 47.4629 486.983 47.3294 487.113 47.2383H488.197C488.288 47.2383 488.334 47.1927 488.334 47.1016V38.8984C488.334 38.8203 488.288 38.7812 488.197 38.7812H487.113C486.983 38.6901 486.918 38.5566 486.918 38.3809C486.918 38.1986 486.983 38.0716 487.113 38L489.379 38.0391L491.713 38C491.85 38.0781 491.918 38.2051 491.918 38.3809C491.918 38.5501 491.85 38.6836 491.713 38.7812H490.531C490.453 38.7812 490.414 38.8268 490.414 38.918V42.0625H491.713C492.995 42.0495 493.988 42.2806 494.691 42.7559C495.401 43.2311 495.756 43.9473 495.756 44.9043C495.756 45.8288 495.411 46.584 494.721 47.1699C494.031 47.7493 493.083 48.0391 491.879 48.0391L489.379 47.9805L487.113 48.0195ZM490.551 47.2383H491.635C492.93 47.2383 493.578 46.4668 493.578 44.9238C493.578 44.1751 493.415 43.6283 493.09 43.2832C492.764 42.9316 492.266 42.7559 491.596 42.7559H490.414V47.1016C490.414 47.1927 490.46 47.2383 490.551 47.2383ZM506.068 43.7812L504.33 46.3594C504.05 46.724 503.91 46.9518 503.91 47.043C503.91 47.1862 503.992 47.2578 504.154 47.2578H505.072C505.202 47.349 505.268 47.4759 505.268 47.6387C505.268 47.8145 505.202 47.9479 505.072 48.0391L503.217 47.9609L501.654 48.0391C501.531 47.9154 501.469 47.7884 501.469 47.6582C501.469 47.4954 501.531 47.362 501.654 47.2578H502.494C502.663 47.2578 502.803 47.1732 502.914 47.0039L505.59 43.0977L503.051 38.9766C502.992 38.8854 502.937 38.8236 502.885 38.791C502.833 38.7585 502.761 38.7422 502.67 38.7422H501.977C501.84 38.651 501.771 38.5241 501.771 38.3613C501.771 38.2116 501.84 38.0781 501.977 37.9609L504.174 38.0195L506.254 37.9609C506.384 38.0326 506.449 38.166 506.449 38.3613C506.449 38.5501 506.384 38.6771 506.254 38.7422H505.473C505.368 38.7422 505.316 38.7878 505.316 38.8789C505.316 38.9115 505.349 38.9928 505.414 39.123L507.035 41.7793L508.451 39.6797C508.49 39.6211 508.552 39.5299 508.637 39.4062C508.728 39.276 508.793 39.1784 508.832 39.1133C508.871 39.0417 508.891 38.9896 508.891 38.957C508.891 38.8138 508.812 38.7422 508.656 38.7422H508.012C507.882 38.6706 507.816 38.5436 507.816 38.3613C507.816 38.1855 507.882 38.0521 508.012 37.9609L509.496 38.0195L511.01 37.9609C511.133 38.0651 511.195 38.1986 511.195 38.3613C511.195 38.5306 511.133 38.6576 511.01 38.7422H510.316C510.141 38.7422 510.007 38.8268 509.916 38.9961L507.514 42.4629L510.336 47.0234C510.342 47.0365 510.352 47.0527 510.365 47.0723C510.385 47.0918 510.398 47.1081 510.404 47.1211C510.411 47.1276 510.421 47.1406 510.434 47.1602C510.447 47.1732 510.456 47.1829 510.463 47.1895C510.469 47.196 510.479 47.2057 510.492 47.2188C510.505 47.2253 510.515 47.2318 510.521 47.2383C510.535 47.2383 510.548 47.2415 510.561 47.248C510.574 47.2546 510.587 47.2578 510.6 47.2578C510.613 47.2578 510.629 47.2578 510.648 47.2578H511.469C511.605 47.3555 511.674 47.4824 511.674 47.6387C511.674 47.7884 511.605 47.9219 511.469 48.0391L509.33 47.9805L506.811 48.0391C506.68 47.9544 506.615 47.821 506.615 47.6387C506.615 47.4564 506.68 47.3294 506.811 47.2578H507.895C507.999 47.2578 508.051 47.2057 508.051 47.1016C508.051 47.0495 508.005 46.9551 507.914 46.8184L506.068 43.7812Z" fill="#5E74E7"/>
<path d="M606.236 99.2637C605.54 99.2637 605.003 99.0391 604.625 98.5898C604.247 98.1341 604.059 97.571 604.059 96.9004C604.059 96.4056 604.179 96.0215 604.42 95.748C604.661 95.4746 604.98 95.3379 605.377 95.3379C605.715 95.3379 605.966 95.4421 606.129 95.6504C606.298 95.8522 606.383 96.1029 606.383 96.4023C606.383 96.6497 606.337 96.8646 606.246 97.0469C606.155 97.2292 606.054 97.3626 605.943 97.4473C605.833 97.5254 605.732 97.6165 605.641 97.7207C605.549 97.8184 605.504 97.9193 605.504 98.0234C605.504 98.1667 605.566 98.2871 605.689 98.3848C605.813 98.4759 605.989 98.5215 606.217 98.5215C606.445 98.5215 606.65 98.4694 606.832 98.3652C607.014 98.2611 607.171 98.1048 607.301 97.8965C607.431 97.6816 607.542 97.4668 607.633 97.252C607.73 97.0371 607.815 96.7604 607.887 96.4219C607.965 96.0833 608.023 95.7936 608.062 95.5527C608.102 95.3118 608.147 95.0091 608.199 94.6445C608.486 92.4635 608.665 89.5957 608.736 86.041C608.743 85.6439 608.678 85.377 608.541 85.2402C608.404 85.1035 608.15 85.0352 607.779 85.0352H606.783C606.646 84.9701 606.578 84.8464 606.578 84.6641C606.578 84.4688 606.646 84.3353 606.783 84.2637L609.498 84.3223H614.684L617.418 84.2637C617.568 84.3353 617.643 84.4688 617.643 84.6641C617.643 84.8333 617.568 84.957 617.418 85.0352H615.943C615.904 85.0352 615.868 85.0514 615.836 85.084C615.81 85.11 615.797 85.1426 615.797 85.1816V98.1016C615.797 98.1927 615.846 98.2383 615.943 98.2383H617.418C617.568 98.3294 617.643 98.4629 617.643 98.6387C617.643 98.8145 617.568 98.9414 617.418 99.0195L614.645 98.9609L611.842 99.0195C611.705 98.9544 611.637 98.8275 611.637 98.6387C611.637 98.4564 611.705 98.3229 611.842 98.2383H613.316C613.414 98.2383 613.463 98.1927 613.463 98.1016V85.3184C613.463 85.2272 613.414 85.1816 613.316 85.1816H610.484C610.139 85.1816 609.908 85.2435 609.791 85.3672C609.674 85.4909 609.609 85.7155 609.596 86.041C609.498 89.7194 609.306 92.5775 609.02 94.6152C608.98 94.9342 608.945 95.2044 608.912 95.4258C608.88 95.6406 608.834 95.8945 608.775 96.1875C608.723 96.474 608.668 96.7148 608.609 96.9102C608.557 97.1055 608.489 97.3203 608.404 97.5547C608.326 97.7891 608.238 97.9844 608.141 98.1406C608.049 98.2904 607.939 98.4434 607.809 98.5996C607.678 98.7493 607.538 98.8698 607.389 98.9609C607.239 99.0521 607.066 99.1237 606.871 99.1758C606.676 99.2344 606.464 99.2637 606.236 99.2637ZM619.332 99.0391C619.202 98.9479 619.137 98.8145 619.137 98.6387C619.137 98.4564 619.202 98.3294 619.332 98.2578H620.416C620.507 98.2578 620.553 98.2122 620.553 98.1211V89.918C620.553 89.8268 620.507 89.7812 620.416 89.7812H619.332C619.202 89.6901 619.137 89.5566 619.137 89.3809C619.137 89.1986 619.202 89.0716 619.332 89L621.598 89.0391L623.854 89C623.99 89.0781 624.059 89.2051 624.059 89.3809C624.059 89.5501 623.99 89.6836 623.854 89.7812H622.75C622.672 89.7812 622.633 89.8268 622.633 89.918V96.7246L626.676 90.0156V89.8984C626.676 89.8203 626.637 89.7812 626.559 89.7812H625.475C625.325 89.6901 625.25 89.5566 625.25 89.3809C625.25 89.2051 625.325 89.0781 625.475 89L627.711 89.0391L629.977 89C630.12 89.0716 630.191 89.1986 630.191 89.3809C630.191 89.5566 630.12 89.6901 629.977 89.7812H628.893C628.814 89.7812 628.775 89.8268 628.775 89.918V98.1211C628.775 98.2122 628.814 98.2578 628.893 98.2578H629.977C630.12 98.3294 630.191 98.4564 630.191 98.6387C630.191 98.8145 630.12 98.9479 629.977 99.0391L627.711 98.9805L625.475 99.0391C625.325 98.9479 625.25 98.8145 625.25 98.6387C625.25 98.4629 625.325 98.3359 625.475 98.2578H626.559C626.637 98.2578 626.676 98.2122 626.676 98.1211V91.3242L622.633 98.0234V98.1211C622.633 98.2122 622.672 98.2578 622.75 98.2578H623.854C623.99 98.3359 624.059 98.4629 624.059 98.6387C624.059 98.8079 623.99 98.9414 623.854 99.0391L621.598 98.9805L619.332 99.0391ZM631.812 99.0391C631.682 98.9479 631.617 98.8145 631.617 98.6387C631.617 98.4564 631.682 98.3294 631.812 98.2578H632.896C632.988 98.2578 633.033 98.2122 633.033 98.1211V89.918C633.033 89.8268 632.988 89.7812 632.896 89.7812H631.812C631.682 89.6901 631.617 89.5566 631.617 89.3809C631.617 89.1986 631.682 89.0716 631.812 89L634.078 89.0391L636.334 89C636.471 89.0781 636.539 89.2051 636.539 89.3809C636.539 89.5501 636.471 89.6836 636.334 89.7812H635.23C635.152 89.7812 635.113 89.8268 635.113 89.918V93.5996H638.99V89.918C638.99 89.8268 638.945 89.7812 638.854 89.7812H637.779C637.643 89.6836 637.574 89.5501 637.574 89.3809C637.574 89.2051 637.643 89.0781 637.779 89L640.035 89.0391L642.291 89C642.428 89.0781 642.496 89.2051 642.496 89.3809C642.496 89.5501 642.428 89.6836 642.291 89.7812H641.197C641.165 89.7812 641.135 89.7943 641.109 89.8203C641.083 89.8464 641.07 89.8789 641.07 89.918V98.1211C641.07 98.1602 641.083 98.1927 641.109 98.2188C641.135 98.2448 641.165 98.2578 641.197 98.2578H642.291C642.428 98.3359 642.496 98.4629 642.496 98.6387C642.496 98.8079 642.428 98.9414 642.291 99.0391L640.035 98.9805L637.779 99.0391C637.643 98.9414 637.574 98.8079 637.574 98.6387C637.574 98.4629 637.643 98.3359 637.779 98.2578H638.854C638.945 98.2578 638.99 98.2122 638.99 98.1211V94.3027H635.113V98.1211C635.113 98.2122 635.152 98.2578 635.23 98.2578H636.334C636.471 98.3359 636.539 98.4629 636.539 98.6387C636.539 98.8079 636.471 98.9414 636.334 99.0391L634.078 98.9805L631.812 99.0391ZM644.137 99.0391C644.007 98.9479 643.941 98.8145 643.941 98.6387C643.941 98.4564 644.007 98.3294 644.137 98.2578H645.221C645.312 98.2578 645.357 98.2122 645.357 98.1211V89.918C645.357 89.8268 645.312 89.7812 645.221 89.7812H644.137C644.007 89.6901 643.941 89.5566 643.941 89.3809C643.941 89.1986 644.007 89.0716 644.137 89L646.402 89.0391L648.658 89C648.795 89.0781 648.863 89.2051 648.863 89.3809C648.863 89.5501 648.795 89.6836 648.658 89.7812H647.555C647.477 89.7812 647.438 89.8268 647.438 89.918V96.7246L651.48 90.0156V89.8984C651.48 89.8203 651.441 89.7812 651.363 89.7812H650.279C650.13 89.6901 650.055 89.5566 650.055 89.3809C650.055 89.2051 650.13 89.0781 650.279 89L652.516 89.0391L654.781 89C654.924 89.0716 654.996 89.1986 654.996 89.3809C654.996 89.5566 654.924 89.6901 654.781 89.7812H653.697C653.619 89.7812 653.58 89.8268 653.58 89.918V98.1211C653.58 98.2122 653.619 98.2578 653.697 98.2578H654.781C654.924 98.3294 654.996 98.4564 654.996 98.6387C654.996 98.8145 654.924 98.9479 654.781 99.0391L652.516 98.9805L650.279 99.0391C650.13 98.9479 650.055 98.8145 650.055 98.6387C650.055 98.4629 650.13 98.3359 650.279 98.2578H651.363C651.441 98.2578 651.48 98.2122 651.48 98.1211V91.3242L647.438 98.0234V98.1211C647.438 98.2122 647.477 98.2578 647.555 98.2578H648.658C648.795 98.3359 648.863 98.4629 648.863 98.6387C648.863 98.8079 648.795 98.9414 648.658 99.0391L646.402 98.9805L644.137 99.0391ZM657.857 99.2246C657.519 99.2246 657.229 99.1497 656.988 99C656.754 98.8568 656.575 98.6582 656.451 98.4043C656.327 98.1504 656.236 97.8965 656.178 97.6426C656.126 97.3822 656.093 97.1022 656.08 96.8027C656.08 96.64 656.116 96.5033 656.188 96.3926C656.259 96.2754 656.35 96.2168 656.461 96.2168C656.604 96.2168 656.676 96.3438 656.676 96.5977C656.695 97.0859 656.764 97.5059 656.881 97.8574C656.998 98.209 657.158 98.3848 657.359 98.3848C657.522 98.3848 657.643 98.3197 657.721 98.1895C657.799 98.0527 657.857 97.8216 657.896 97.4961C657.994 96.6693 658.069 96.1322 658.121 95.8848C658.251 95.3184 658.479 94.8919 658.805 94.6055C659.137 94.319 659.583 94.1628 660.143 94.1367C660.221 94.1237 660.26 94.0846 660.26 94.0195C660.26 93.9544 660.214 93.9219 660.123 93.9219C658.411 93.8568 657.555 93.1016 657.555 91.6562C657.555 90.8555 657.883 90.2109 658.541 89.7227C659.205 89.2344 660.139 88.9935 661.344 89L663.736 89.0391L666.021 89C666.152 89.0716 666.217 89.1986 666.217 89.3809C666.217 89.5566 666.152 89.6901 666.021 89.7812H664.898C664.82 89.7812 664.781 89.8268 664.781 89.918V98.1211C664.781 98.1992 664.82 98.2383 664.898 98.2383H666.021C666.152 98.3294 666.217 98.4629 666.217 98.6387C666.217 98.8145 666.152 98.9479 666.021 99.0391C665.995 99.0326 665.628 99.0195 664.918 99C664.215 98.987 663.821 98.9805 663.736 98.9805C663.639 98.9805 663.225 98.987 662.496 99C661.767 99.0195 661.389 99.0326 661.363 99.0391C661.227 98.9414 661.158 98.8079 661.158 98.6387C661.158 98.4694 661.227 98.3359 661.363 98.2383H662.555C662.639 98.2383 662.682 98.1927 662.682 98.1016V94.3418H661.881C661.308 94.3418 660.904 94.459 660.67 94.6934C660.436 94.9277 660.273 95.3639 660.182 96.002L660.035 96.9395C659.905 97.7402 659.68 98.3229 659.361 98.6875C659.042 99.0456 658.541 99.2246 657.857 99.2246ZM661.617 93.6387H662.682V89.8984C662.682 89.8203 662.639 89.7812 662.555 89.7812H661.539C660.934 89.7812 660.478 89.9375 660.172 90.25C659.872 90.556 659.723 91.0671 659.723 91.7832C659.723 92.4408 659.869 92.916 660.162 93.209C660.455 93.4954 660.94 93.6387 661.617 93.6387ZM672.77 94.0391C672.77 93.0625 672.968 92.1673 673.365 91.3535C673.762 90.5332 674.316 89.8822 675.025 89.4004C675.742 88.9186 676.536 88.6777 677.408 88.6777C678.15 88.6777 678.801 88.8307 679.361 89.1367C679.921 89.4427 680.37 89.8626 680.709 90.3965C681.002 90.8001 681.148 91.2428 681.148 91.7246C681.148 92.0632 681.041 92.3594 680.826 92.6133C680.611 92.8607 680.312 92.9844 679.928 92.9844C679.609 92.9844 679.348 92.89 679.146 92.7012C678.951 92.5124 678.854 92.2715 678.854 91.9785C678.854 91.8027 678.938 91.5553 679.107 91.2363C679.283 90.9108 679.371 90.6862 679.371 90.5625C679.371 90.2044 679.202 89.9245 678.863 89.7227C678.525 89.5208 678.134 89.4199 677.691 89.4199C676.897 89.4199 676.275 89.8008 675.826 90.5625C675.377 91.3177 675.152 92.4505 675.152 93.9609C675.152 95.5104 675.361 96.6465 675.777 97.3691C676.201 98.0853 676.839 98.4434 677.691 98.4434C678.382 98.4434 678.987 98.196 679.508 97.7012C680.035 97.1999 680.377 96.5716 680.533 95.8164C680.611 95.4844 680.751 95.3184 680.953 95.3184C681.161 95.3184 681.266 95.4453 681.266 95.6992C681.266 95.8424 681.23 96.0378 681.158 96.2852C681.093 96.526 681.018 96.7376 680.934 96.9199C680.641 97.6361 680.169 98.2155 679.518 98.6582C678.867 99.1009 678.124 99.3223 677.291 99.3223C675.995 99.3223 674.918 98.8405 674.059 97.877C673.199 96.9069 672.77 95.6276 672.77 94.0391ZM684.645 99.0391C684.514 98.9479 684.449 98.8145 684.449 98.6387C684.449 98.4564 684.514 98.3294 684.645 98.2578H685.924C686.008 98.2578 686.051 98.2122 686.051 98.1211V89.8984C686.051 89.8073 686.008 89.7617 685.924 89.7617H685.104C684.544 89.7812 684.143 89.9049 683.902 90.1328C683.668 90.3542 683.531 90.7513 683.492 91.3242L683.473 92.0566C683.453 92.3626 683.32 92.5156 683.072 92.5156C682.923 92.5156 682.796 92.444 682.691 92.3008L682.711 89.3418C682.711 89.2441 682.74 89.166 682.799 89.1074C682.864 89.0488 682.945 89.0195 683.043 89.0195L687.184 89.0586L691.168 89.0195C691.266 89.0195 691.347 89.0456 691.412 89.0977C691.477 89.1497 691.51 89.2246 691.51 89.3223V92.2812C691.438 92.4245 691.318 92.4961 691.148 92.4961C690.901 92.4961 690.768 92.3496 690.748 92.0566L690.709 91.3047C690.683 90.7448 690.546 90.3542 690.299 90.1328C690.051 89.9049 689.648 89.7812 689.088 89.7617H688.268C688.189 89.7617 688.15 89.8073 688.15 89.8984V98.1211C688.15 98.2122 688.189 98.2578 688.268 98.2578H689.703C689.84 98.3229 689.908 98.4499 689.908 98.6387C689.908 98.821 689.84 98.9544 689.703 99.0391L687.105 98.9805L684.645 99.0391ZM695.143 103.482L692.867 103.541C692.73 103.469 692.662 103.342 692.662 103.16C692.662 102.965 692.73 102.831 692.867 102.76H693.961C694.046 102.76 694.088 102.714 694.088 102.623V89.8984C694.088 89.7943 694.039 89.7422 693.941 89.7422H692.867C692.73 89.6771 692.662 89.5501 692.662 89.3613C692.662 89.179 692.73 89.0456 692.867 88.9609C692.997 88.9674 693.17 88.9772 693.385 88.9902C693.606 88.9967 693.798 89.0033 693.961 89.0098C694.13 89.0163 694.264 89.0195 694.361 89.0195C694.544 89.0195 694.749 88.9935 694.977 88.9414C695.211 88.8893 695.387 88.8633 695.504 88.8633C695.673 88.8633 695.79 88.9056 695.855 88.9902C695.927 89.0749 695.963 89.2116 695.963 89.4004V90.9238C696.321 90.2728 696.786 89.7357 697.359 89.3125C697.932 88.8893 698.554 88.6777 699.225 88.6777C700.383 88.6777 701.324 89.1628 702.047 90.1328C702.776 91.1029 703.141 92.3789 703.141 93.9609C703.141 95.0026 702.939 95.9368 702.535 96.7637C702.138 97.584 701.607 98.2155 700.943 98.6582C700.279 99.1009 699.553 99.3223 698.766 99.3223C697.698 99.3223 696.839 98.9414 696.188 98.1797V102.623C696.188 102.714 696.227 102.76 696.305 102.76H697.779C697.916 102.838 697.984 102.971 697.984 103.16C697.984 103.336 697.916 103.463 697.779 103.541L695.143 103.482ZM698.902 89.5566C697.919 89.5566 697.014 90.2793 696.188 91.7246V96.9785C696.682 97.9811 697.421 98.4824 698.404 98.4824C699.186 98.4824 699.785 98.1341 700.201 97.4375C700.618 96.7409 700.826 95.582 700.826 93.9609C700.826 92.3594 700.663 91.2266 700.338 90.5625C700.012 89.8919 699.534 89.5566 698.902 89.5566ZM705.504 96.7832C705.074 95.9629 704.859 95.0352 704.859 94C704.859 92.9648 705.074 92.0404 705.504 91.2266C705.934 90.4062 706.51 89.778 707.232 89.3418C707.955 88.8991 708.756 88.6777 709.635 88.6777C710.976 88.6777 712.105 89.1758 713.023 90.1719C713.941 91.1615 714.4 92.4375 714.4 94C714.4 95.5625 713.941 96.8418 713.023 97.8379C712.105 98.8275 710.976 99.3223 709.635 99.3223C708.756 99.3223 707.955 99.1042 707.232 98.668C706.51 98.2253 705.934 97.597 705.504 96.7832ZM707.203 94C707.203 95.6471 707.411 96.8288 707.828 97.5449C708.251 98.2611 708.854 98.6191 709.635 98.6191C710.416 98.6191 711.018 98.2611 711.441 97.5449C711.865 96.8288 712.076 95.6471 712.076 94C712.076 92.3594 711.865 91.181 711.441 90.4648C711.018 89.7422 710.416 89.3809 709.635 89.3809C708.854 89.3809 708.251 89.7422 707.828 90.4648C707.411 91.181 707.203 92.3594 707.203 94ZM720.914 99.0391C720.777 98.9544 720.709 98.821 720.709 98.6387C720.709 98.4499 720.777 98.3229 720.914 98.2578H722.193C722.271 98.2578 722.311 98.2122 722.311 98.1211V94.3613C721.718 94.7585 720.934 94.957 719.957 94.957C718.941 94.957 718.15 94.6966 717.584 94.1758C717.018 93.6549 716.734 92.9095 716.734 91.9395V89.918C716.734 89.8268 716.695 89.7812 716.617 89.7812H715.533C715.383 89.6901 715.309 89.5566 715.309 89.3809C715.309 89.2051 715.383 89.0781 715.533 89L717.77 89.0391L719.869 89C720.006 89.0651 720.074 89.1921 720.074 89.3809C720.074 89.5632 720.006 89.6966 719.869 89.7812H718.951C718.873 89.7812 718.834 89.8268 718.834 89.918V92.2031C718.834 93.5182 719.387 94.1758 720.494 94.1758C720.787 94.1758 721.083 94.1367 721.383 94.0586C721.682 93.9805 721.904 93.9089 722.047 93.8438C722.197 93.7721 722.285 93.7233 722.311 93.6973V89.918C722.311 89.8268 722.271 89.7812 722.193 89.7812H721.275C721.139 89.6836 721.07 89.5501 721.07 89.3809C721.07 89.2051 721.139 89.0781 721.275 89L723.375 89.0391L725.631 89C725.768 89.0781 725.836 89.2051 725.836 89.3809C725.836 89.5501 725.768 89.6836 725.631 89.7812H724.537C724.505 89.7812 724.475 89.7943 724.449 89.8203C724.423 89.8464 724.41 89.8789 724.41 89.918V98.1211C724.41 98.1602 724.423 98.1927 724.449 98.2188C724.475 98.2448 724.505 98.2578 724.537 98.2578H725.631C725.768 98.3359 725.836 98.4629 725.836 98.6387C725.836 98.8079 725.768 98.9414 725.631 99.0391L723.375 98.9805L720.914 99.0391ZM727.477 99.0391C727.346 98.9479 727.281 98.8145 727.281 98.6387C727.281 98.4564 727.346 98.3294 727.477 98.2578H728.561C728.652 98.2578 728.697 98.2122 728.697 98.1211V89.918C728.697 89.8268 728.652 89.7812 728.561 89.7812H727.477C727.346 89.6901 727.281 89.5566 727.281 89.3809C727.281 89.1986 727.346 89.0716 727.477 89L729.742 89.0391L731.998 89C732.135 89.0781 732.203 89.2051 732.203 89.3809C732.203 89.5501 732.135 89.6836 731.998 89.7812H730.895C730.816 89.7812 730.777 89.8268 730.777 89.918V93.5996H734.654V89.918C734.654 89.8268 734.609 89.7812 734.518 89.7812H733.443C733.307 89.6836 733.238 89.5501 733.238 89.3809C733.238 89.2051 733.307 89.0781 733.443 89L735.699 89.0391L737.955 89C738.092 89.0781 738.16 89.2051 738.16 89.3809C738.16 89.5501 738.092 89.6836 737.955 89.7812H736.861C736.829 89.7812 736.799 89.7943 736.773 89.8203C736.747 89.8464 736.734 89.8789 736.734 89.918V98.1211C736.734 98.1602 736.747 98.1927 736.773 98.2188C736.799 98.2448 736.829 98.2578 736.861 98.2578H737.955C738.092 98.3359 738.16 98.4629 738.16 98.6387C738.16 98.8079 738.092 98.9414 737.955 99.0391L735.699 98.9805L733.443 99.0391C733.307 98.9414 733.238 98.8079 733.238 98.6387C733.238 98.4629 733.307 98.3359 733.443 98.2578H734.518C734.609 98.2578 734.654 98.2122 734.654 98.1211V94.3027H730.777V98.1211C730.777 98.2122 730.816 98.2578 730.895 98.2578H731.998C732.135 98.3359 732.203 98.4629 732.203 98.6387C732.203 98.8079 732.135 98.9414 731.998 99.0391L729.742 98.9805L727.477 99.0391ZM748.688 99.0391C748.551 98.9414 748.482 98.8079 748.482 98.6387C748.482 98.4629 748.551 98.3359 748.688 98.2578H749.684C749.762 98.2578 749.801 98.2122 749.801 98.1211V89.918C749.801 89.8268 749.762 89.7812 749.684 89.7812H748.6C748.456 89.6901 748.385 89.5566 748.385 89.3809C748.385 89.1986 748.456 89.0716 748.6 89L750.846 89.0391L753.102 89C753.251 89.0781 753.326 89.2051 753.326 89.3809C753.326 89.5566 753.251 89.6901 753.102 89.7812H752.027C751.943 89.7812 751.9 89.8268 751.9 89.918V98.1211C751.9 98.2122 751.943 98.2578 752.027 98.2578H753.102C753.251 98.3359 753.326 98.4629 753.326 98.6387C753.326 98.8145 753.251 98.9479 753.102 99.0391L750.846 98.9805L748.688 99.0391ZM739.801 99.0195C739.671 98.9479 739.605 98.821 739.605 98.6387C739.605 98.4629 739.671 98.3294 739.801 98.2383H740.885C740.976 98.2383 741.021 98.1927 741.021 98.1016V89.8984C741.021 89.8203 740.976 89.7812 740.885 89.7812H739.801C739.671 89.6901 739.605 89.5566 739.605 89.3809C739.605 89.1986 739.671 89.0716 739.801 89L742.066 89.0391L744.4 89C744.537 89.0781 744.605 89.2051 744.605 89.3809C744.605 89.5501 744.537 89.6836 744.4 89.7812H743.219C743.141 89.7812 743.102 89.8268 743.102 89.918V93.0625H744.4C745.683 93.0495 746.676 93.2806 747.379 93.7559C748.089 94.2311 748.443 94.9473 748.443 95.9043C748.443 96.8288 748.098 97.584 747.408 98.1699C746.718 98.7493 745.771 99.0391 744.566 99.0391L742.066 98.9805L739.801 99.0195ZM743.238 98.2383H744.322C745.618 98.2383 746.266 97.4668 746.266 95.9238C746.266 95.1751 746.103 94.6283 745.777 94.2832C745.452 93.9316 744.954 93.7559 744.283 93.7559H743.102V98.1016C743.102 98.1927 743.147 98.2383 743.238 98.2383ZM758.756 94.7812L757.018 97.3594C756.738 97.724 756.598 97.9518 756.598 98.043C756.598 98.1862 756.679 98.2578 756.842 98.2578H757.76C757.89 98.349 757.955 98.4759 757.955 98.6387C757.955 98.8145 757.89 98.9479 757.76 99.0391L755.904 98.9609L754.342 99.0391C754.218 98.9154 754.156 98.7884 754.156 98.6582C754.156 98.4954 754.218 98.362 754.342 98.2578H755.182C755.351 98.2578 755.491 98.1732 755.602 98.0039L758.277 94.0977L755.738 89.9766C755.68 89.8854 755.624 89.8236 755.572 89.791C755.52 89.7585 755.449 89.7422 755.357 89.7422H754.664C754.527 89.651 754.459 89.5241 754.459 89.3613C754.459 89.2116 754.527 89.0781 754.664 88.9609L756.861 89.0195L758.941 88.9609C759.072 89.0326 759.137 89.166 759.137 89.3613C759.137 89.5501 759.072 89.6771 758.941 89.7422H758.16C758.056 89.7422 758.004 89.7878 758.004 89.8789C758.004 89.9115 758.036 89.9928 758.102 90.123L759.723 92.7793L761.139 90.6797C761.178 90.6211 761.24 90.5299 761.324 90.4062C761.415 90.276 761.48 90.1784 761.52 90.1133C761.559 90.0417 761.578 89.9896 761.578 89.957C761.578 89.8138 761.5 89.7422 761.344 89.7422H760.699C760.569 89.6706 760.504 89.5436 760.504 89.3613C760.504 89.1855 760.569 89.0521 760.699 88.9609L762.184 89.0195L763.697 88.9609C763.821 89.0651 763.883 89.1986 763.883 89.3613C763.883 89.5306 763.821 89.6576 763.697 89.7422H763.004C762.828 89.7422 762.695 89.8268 762.604 89.9961L760.201 93.4629L763.023 98.0234C763.03 98.0365 763.04 98.0527 763.053 98.0723C763.072 98.0918 763.085 98.1081 763.092 98.1211C763.098 98.1276 763.108 98.1406 763.121 98.1602C763.134 98.1732 763.144 98.1829 763.15 98.1895C763.157 98.196 763.167 98.2057 763.18 98.2188C763.193 98.2253 763.202 98.2318 763.209 98.2383C763.222 98.2383 763.235 98.2415 763.248 98.248C763.261 98.2546 763.274 98.2578 763.287 98.2578C763.3 98.2578 763.316 98.2578 763.336 98.2578H764.156C764.293 98.3555 764.361 98.4824 764.361 98.6387C764.361 98.7884 764.293 98.9219 764.156 99.0391L762.018 98.9805L759.498 99.0391C759.368 98.9544 759.303 98.821 759.303 98.6387C759.303 98.4564 759.368 98.3294 759.498 98.2578H760.582C760.686 98.2578 760.738 98.2057 760.738 98.1016C760.738 98.0495 760.693 97.9551 760.602 97.8184L758.756 94.7812Z" fill="#5E74E7"/>
</svg>
