<svg width="1439" height="975" viewBox="0 0 1439 975" fill="none" xmlns="http://www.w3.org/2000/svg">
<rect x="-1" width="382" height="975" fill="url(#paint0_linear_146_3094)"/>
<path d="M381 0H679V975H381V0Z" fill="#93D397"/>
<rect x="679" width="417" height="975" fill="url(#paint1_linear_146_3094)"/>
<rect x="1096" width="343" height="975" fill="#FFE6B8"/>
<rect x="99" y="222" width="196" height="292" fill="#FFE6B8"/>
<rect x="459" y="41" width="522" height="139" fill="#5E74E7"/>
<rect x="485" y="53" width="471" height="113" fill="#FFE6B8"/>
<rect x="96" y="561" width="196" height="292" fill="#FFE6B8"/>
<rect x="425" y="559" width="196" height="292" fill="#FFE6B8"/>
<rect x="425" y="222" width="196" height="292" fill="#FFE6B8"/>
<rect x="790" y="561" width="196" height="292" fill="#FFE6B8"/>
<rect x="790" y="222" width="196" height="292" fill="#FFE6B8"/>
<rect x="1180" y="222" width="196" height="292" fill="#93D397"/>
<rect x="1180" y="561" width="196" height="292" fill="#93D397"/>
<rect x="122" y="243" width="150" height="250" fill="#5E74E7"/>
<rect x="813" y="243" width="150" height="250" fill="#5E74E7"/>
<rect x="122" y="582" width="150" height="250" fill="#5E74E7"/>
<rect x="812" y="582" width="150" height="250" fill="#5E74E7"/>
<rect x="445" y="243" width="150" height="250" fill="#5E74E7"/>
<rect x="1203" y="243" width="150" height="250" fill="#5E74E7"/>
<rect x="445" y="580" width="150" height="250" fill="#5E74E7"/>
<rect x="1203" y="582" width="150" height="250" fill="#5E74E7"/>
<defs>
<linearGradient id="paint0_linear_146_3094" x1="190" y1="0" x2="190" y2="975" gradientUnits="userSpaceOnUse">
<stop stop-color="#FFBA34"/>
<stop offset="1" stop-color="#FFDA94"/>
</linearGradient>
<linearGradient id="paint1_linear_146_3094" x1="887.5" y1="0" x2="887.5" y2="975" gradientUnits="userSpaceOnUse">
<stop stop-color="#FE4A33"/>
<stop offset="1" stop-color="#FFA498"/>
</linearGradient>
</defs>
</svg>
