<svg width="1440" height="141" viewBox="0 0 1440 141" fill="none" xmlns="http://www.w3.org/2000/svg">
<rect width="1440" height="141" fill="#F9A1B9"/>
<rect x="24" width="52" height="140" fill="#FFAFC5"/>
<rect x="103" width="52" height="140" fill="#FFAFC5"/>
<rect x="182" width="52" height="140" fill="#FFAFC5"/>
<rect x="261" width="52" height="140" fill="#FFAFC5"/>
<rect x="340" width="52" height="140" fill="#FFAFC5"/>
<rect x="419" width="52" height="140" fill="#FFAFC5"/>
<rect x="498" width="52" height="140" fill="#FFAFC5"/>
<rect x="577" width="52" height="140" fill="#FFAFC5"/>
<rect x="649" width="52" height="140" fill="#FFAFC5"/>
<rect x="728" y="1" width="52" height="140" fill="#FFAFC5"/>
<rect x="807" width="52" height="140" fill="#FFAFC5"/>
<rect x="886" width="52" height="140" fill="#FFAFC5"/>
<rect x="965" width="52" height="140" fill="#FFAFC5"/>
<rect x="1044" width="52" height="140" fill="#FFAFC5"/>
<rect x="1123" width="52" height="140" fill="#FFAFC5"/>
<rect x="1202" width="52" height="140" fill="#FFAFC5"/>
<rect x="1281" width="52" height="140" fill="#FFAFC5"/>
<rect x="1367" y="1" width="52" height="140" fill="#FFAFC5"/>
</svg>
